# xmcd
#
# Track frame offsets:
#	150
#	21700
#	36977
#	48802
#	63617
#	75012
#	92727
#	106440
#	123002
#	138467
#	157807
#	172452
#	187507
#	205225
#	224797
#
# Disc length: 3121 seconds
#
# Revision: 9
# Processed by: cddbd v1.5.2PL0 Copyright (c) Steve Scherf et al.
# Submitted via: EZCDAudioConverter 1.3.4.1
#
DISCID=cf0c2f0f
DTITLE=The Byrds - Dr. Byrds and Mr. Hyde
DYEAR=1969
DGENRE=
TTITLE0=This Wheel's On Fire
TTITLE1=Old Blue
TTITLE2=Your Gentle Way Of Loving Me
TTITLE3=Child Of The Universe
TTITLE4=Nashville West
TTITLE5=Drug Store Truck Drivin' Man
TTITLE6=King Apathy III
TTITLE7=Candy
TTITLE8=Bad Night At The Whiskey
TTITLE9=My Back Pages - B.J. Blues - Baby, What You Want Me To Do
TTITLE10=Stanley's Song
TTITLE11=Lay, Lady, Lay [Alternate Version]
TTITLE12=This Wheel's On Fire [Version 1]
TTITLE13=My Back Pages - B.J. Blues - Baby, What You Want Me To Do [Take 1]
TTITLE14=Nashville West [Alternate Version]
EXTD=
EXTT0=
EXTT1=
EXTT2=
EXTT3=
EXTT4=
EXTT5=
EXTT6=
EXTT7=
EXTT8=
EXTT9=
EXTT10=
EXTT11=
EXTT12=
EXTT13=
EXTT14=
PLAYORDER=
